<svg xmlns="http://www.w3.org/2000/svg" width="636" height="609.15198" viewBox="0 0 636 609.15198" xmlns:xlink="http://www.w3.org/1999/xlink"><path d="m499.99864,215.94827c0,1.35886-.15644,2.7507-.4858,4.14274l-13.76277,58.56645c-1.95163,8.32651-10.29503,13.48227-18.61349,11.51394l-55.15642-17.11468-2.6932-.83165c-3.13797,2.27295-7.51939,3.31894-12.09867,2.51183-8.00559-1.41657-13.54842-7.93119-12.37897-14.56123,1.16985-6.62179,8.60681-10.84678,16.6124-9.43845,4.57928.80711,8.343,3.28617,10.51742,6.49009l.04102.00804.13995.02473,48.00781,5.93834,4.03557-48.69147c.76609-9.30675,8.54085-16.4638,17.88037-16.4638,10.13055,0,17.95477,8.27724,17.95477,17.90511Z" fill="#ed9da0" stroke-width="0"/><path d="m499.99864,215.94827c0,1.35886-.15644,2.7507-.4858,4.14274l-11.29196,61.03726c-1.95163,8.32651-10.29503,13.48227-18.61349,11.51394l-55.15642-15.33557,2.47081-23.88447h0l42.00372,5.76522,5.238-44.68043c.76609-9.30675,8.54085-16.4638,17.88037-16.4638,10.13055,0,17.95477,8.27724,17.95477,17.90511Z" fill="#2f2e43" stroke-width="0"/><polyline points="0 608.39479 49.89722 608.39479 94.24874 608.39479 96.03179 608.39479 135.07629 608.39479 402.46305 608.39479 466.09113 608.39479 636 608.39479" fill="none" stroke="#090814" stroke-miterlimit="10" stroke-width="1.5"/><rect x="561.60675" y="540.86966" width="16.55153" height="16.55153" transform="translate(-214.68298 445.30058) rotate(-36.39853)" fill="#ed9da0" stroke-width="0"/><path d="m588.11481,564.69082l-28.31896,20.87741c-2.42046,1.78442-5.26149,3.0234-8.21601,3.583l-7.07082,1.33928c-1.46197.27692-2.97718-.31805-3.86013-1.51572-1.03548-1.40457-1.00611-3.34414.07142-4.71672l8.57344-10.92064,11.28575-23.26905.06522.05962c1.6312,1.49114,4.1088,3.73407,4.29462,3.84392,3.48539.77161,6.16188.33807,7.95576-1.28779,3.12893-2.8359,2.49821-8.39822,2.49147-8.4541l-.00513-.04275.0371-.02191c.8523-.50184,1.6735-.6143,2.44086-.33427,1.62897.59451,2.47904,2.73283,2.6008,3.06014,1.59028.22283,5.72636,4.96516,6.0588,5.34896,2.37968.43111,4.018,1.32433,4.86918,2.65504.74421,1.16338.88848,2.64694.42901,4.40952-.55275,2.12064-1.86762,4.03345-3.70238,5.38607Z" fill="#2f2e43" stroke-width="0"/><rect x="440.836" y="576.44745" width="16.55153" height="16.55153" fill="#ed9da0" stroke-width="0"/><path d="m454.56248,608.05485h-35.18281c-3.00712,0-6.0291-.68859-8.73929-1.99138l-6.48609-3.11782c-1.34108-.64463-2.20763-2.02266-2.20763-3.51061,0-1.74501,1.17458-3.28876,2.85638-3.75415l13.38113-3.70266,22.89181-12.03252.01712.08669c.42813,2.16818,1.09143,5.44374,1.1758,5.64242,2.34755,2.6893,4.75914,3.92857,7.16783,3.68438,4.20133-.42594,6.99432-5.27737,7.02205-5.32635l.02124-.03746.04286.00438c.98381.10182,1.71154.4986,2.16303,1.17934.95839,1.44515.37374,3.67074.27752,4.00644,1.14781,1.12303,1.66288,7.39451,1.70272,7.9007,1.6596,1.7591,2.44827,3.45024,2.34375,5.02643-.09133,1.37802-.85554,2.65777-2.27128,3.80384-1.7033,1.37892-3.89671,2.13831-6.17616,2.13831Z" fill="#2f2e43" stroke-width="0"/><polygon points="524.92198 317.71416 445.59607 317.71416 432.95141 580.87471 460.88733 580.87471 478.93669 461.25628 551.36395 556.95103 577.80592 533.02734 524.92198 461.25628 524.92198 317.71416" fill="#2f2e43" stroke-width="0"/><path d="m504.49989,144.76742s21.85539-.04723,13.69086-21.10616c-8.16453-21.05892-23.36736-11.6297-23.36736-11.6297,0,0-6.40596,3.38373-5.08526,10.93321" fill="#2f2e43" stroke-width="0"/><path d="m506.68724,154.86876c0-16.146-13.08896-29.23497-29.23487-29.23497s-29.23507,13.08896-29.23507,29.23497c0,13.09449,8.60942,24.17673,20.47605,27.89862l5.65181,37.35055,28.8114-24.00944s-6.22427-7.92778-9.56211-16.86716c7.88917-5.23559,13.09278-14.19477,13.09278-24.37258Z" fill="#ed9da0" stroke-width="0"/><path d="m491.49811,179.56519s3.88232-14.88451-2.46573-21.72851c-6.33359-6.8284-7.15173,3.79631-7.15173,3.79631l-4.5701-.9935s.7948-10.33241-8.14671-12.12071l5.7623-12.31941s-22.06115,4.28348-22.66921,2.14678c-4.78449-16.81243,40.85904-31.17421,53.46773-5.52469,19.61067,39.89347-14.22655,46.74372-14.22655,46.74372Z" fill="#2f2e43" stroke-width="0"/><polygon points="507.50257 281.63928 520.45818 319.81764 447.15757 318.99404 458.08643 284.11008 507.50257 281.63928" fill="#ed9da0" stroke-width="0"/><path d="m500.88324,184.73907l-32.50579,11.30049-30.7305,158.64705,63.23629,7.72063,4.61098-24.18841,4.39576,24.18841h21.90486l-23.61606-157.7627c-1.05701-7.06118-3.53916-13.8336-7.29552-19.90544h0Z" fill="#1e293b" stroke-width="0"/><path d="m491.76951,371.14655l.56573-26.07692-15.22544-.33031-.56573,26.07692c-2.84068,2.63705-4.71588,6.73452-4.81667,11.38008-.17634,8.12854,5.13401,14.83624,11.86106,14.98218,6.72705.14594,12.32331-6.32514,12.49965-14.45368.10078-4.64557-1.59508-8.8205-4.3186-11.57827Z" fill="#ed9da0" stroke-width="0"/><polyline points="470.74988 240.63038 470.74988 367.02756 497.19185 367.02756 505.00656 241.69735" fill="#2f2e43" stroke-width="0"/><path d="m523.9969,374.6962c-.46408,0-.92816-.01649-1.39385-.05188-5.5561-.41743-10.33685-3.39656-14.21036-8.85332-14.57712-20.54039-43.97104-88.51453-43.97104-107.84425,0-18.47194,4.0215-60.80783,4.16064-61.44222h0l29.68749-16.43726c14.24253,3.34367,24.15632,16.38639,23.57401,31.01277-1.42281,35.73582,2.24078,117.19865,26.21131,150.9573l.19786.27849-.23646.24591c-.49545.51314-11.84894,12.13446-24.01959,12.13446Z" fill="#2f2e43" stroke-width="0"/><path d="m354.55061,609.15198h-199.55937c-26.00248,0-47.15726-21.1545-47.15726-47.15726V47.15726c0-26.00276,21.15478-47.15726,47.15726-47.15726h199.55937c26.00276,0,47.15726,21.1545,47.15726,47.15726v514.83746c0,26.00276-21.1545,47.15726-47.15726,47.15726Z" fill="#2f2e41" stroke-width="0"/><path d="m354.75399,596.42516h-199.96612c-19.51083,0-35.38405-15.8735-35.38405-35.38405V45.21841c0-19.51054,15.87322-35.38405,35.38405-35.38405h199.96612c19.51054,0,35.38405,15.8735,35.38405,35.38405v515.82271c0,19.51054-15.8735,35.38405-35.38405,35.38405Z" fill="#fff" stroke-width="0"/><path d="m286.00949,43.38689h-63.63411c-7.33651,0-13.30531-5.96852-13.30531-13.30531s5.9688-13.30531,13.30531-13.30531h63.63411c7.33679,0,13.30531,5.96852,13.30531,13.30531s-5.96852,13.30531-13.30531,13.30531Z" fill="#2f2e41" stroke-width="0"/><line x1="546.10268" y1="608.84458" x2="21.28449" y2="608.84458" fill="#fff" stroke-width="0"/><line x1="164.65297" y1="144.0567" x2="233.2756" y2="144.0567" fill="none" stroke="#090814" stroke-miterlimit="10" stroke-width="2"/><line x1="164.65297" y1="170.06599" x2="309.00454" y2="170.06599" fill="none" stroke="#090814" stroke-miterlimit="10" stroke-width="2"/><line x1="164.65297" y1="158.36181" x2="371.42683" y2="158.36181" fill="none" stroke="#090814" stroke-miterlimit="10" stroke-width="2"/><circle cx="149.04739" cy="150.55903" r="11.70418" fill="#1e293b" stroke-width="0"/><line x1="164.65297" y1="221.0567" x2="233.2756" y2="221.0567" fill="none" stroke="#090814" stroke-miterlimit="10" stroke-width="2"/><line x1="164.65297" y1="247.06599" x2="309.00454" y2="247.06599" fill="none" stroke="#090814" stroke-miterlimit="10" stroke-width="2"/><line x1="164.65297" y1="235.36181" x2="371.42683" y2="235.36181" fill="none" stroke="#090814" stroke-miterlimit="10" stroke-width="2"/><circle cx="149.04739" cy="227.55903" r="11.70418" fill="#1e293b" stroke-width="0"/><line x1="164.65297" y1="298.0567" x2="233.2756" y2="298.0567" fill="none" stroke="#090814" stroke-miterlimit="10" stroke-width="2"/><line x1="164.65297" y1="324.06599" x2="309.00454" y2="324.06599" fill="none" stroke="#090814" stroke-miterlimit="10" stroke-width="2"/><line x1="164.65297" y1="312.36181" x2="371.42683" y2="312.36181" fill="none" stroke="#090814" stroke-miterlimit="10" stroke-width="2"/><circle cx="149.04739" cy="304.55903" r="11.70418" fill="#1e293b" stroke-width="0"/></svg>